{
  "accessors": [
    {
      "bufferView": 2,
      "componentType": 5126,
      "count": 606,
      "max": [
        58.533592224121094,
        100.79331970214844,
        19.930830001831055
      ],
      "min": [
        -58.533592224121094,
        4.8881378173828125,
        -19.930830001831055
      ],
      "type": "VEC3"
    },
    {
      "bufferView": 2,
      "byteOffset": 7272,
      "componentType": 5126,
      "count": 606,
      "max": [
        1.0,
        1.0,
        1.0
      ],
      "min": [
        -1.0,
        -1.0,
        -1.0
      ],
      "type": "VEC3"
    },
    {
      "bufferView": 3,
      "componentType": 5126,
      "count": 606,
      "max": [
        1.0,
        1.0,
        0.9999998211860657,
        1.0
      ],
      "min": [
        -1.0,
        -0.9999998807907104,
        -1.0,
        -1.0
      ],
      "type": "VEC4"
    },
    {
      "bufferView": 1,
      "componentType": 5126,
      "count": 606,
      "max": [
        0.8213910460472107,
        0.9929342269897461
      ],
      "min": [
        0.004623257089406252,
        0.02958083152770996
      ],
      "type": "VEC2"
    },
    {
      "bufferView": 0,
      "componentType": 5125,
      "count": 1236,
      "type": "SCALAR"
    },
    {
      "bufferView": 2,
      "byteOffset": 14544,
      "componentType": 5126,
      "count": 84,
      "max": [
        58.70058822631836,
        4.8546648025512695,
        15.957637786865234
      ],
      "min": [
        55.25213623046875,
        0.03771601989865303,
        13.390449523925781
      ],
      "type": "VEC3"
    },
    {
      "bufferView": 2,
      "byteOffset": 15552,
      "componentType": 5126,
      "count": 84,
      "max": [
        0.9999956488609314,
        0.9316630363464355,
        1.0
      ],
      "min": [
        -0.9999957084655762,
        -0.9316630363464355,
        -1.0
      ],
      "type": "VEC3"
    },
    {
      "bufferView": 3,
      "byteOffset": 9696,
      "componentType": 5126,
      "count": 84,
      "max": [
        0.9316630959510803,
        0.9316089749336243,
        0.0001899477792903781,
        1.0
      ],
      "min": [
        -0.9316630363464355,
        -1.0,
        -0.0001841494085965678,
        1.0
      ],
      "type": "VEC4"
    },
    {
      "bufferView": 1,
      "byteOffset": 4848,
      "componentType": 5126,
      "count": 84,
      "max": [
        0.7560470104217529,
        0.1705610156059265
      ],
      "min": [
        0.5693545341491699,
        0.03415367007255554
      ],
      "type": "VEC2"
    },
    {
      "bufferView": 0,
      "byteOffset": 4944,
      "componentType": 5125,
      "count": 222,
      "type": "SCALAR"
    },
    {
      "bufferView": 2,
      "byteOffset": 16560,
      "componentType": 5126,
      "count": 84,
      "max": [
        58.70058822631836,
        4.8546648025512695,
        -13.30617904663086
      ],
      "min": [
        55.25213623046875,
        0.03771601989865303,
        -15.873367309570313
      ],
      "type": "VEC3"
    },
    {
      "bufferView": 2,
      "byteOffset": 17568,
      "componentType": 5126,
      "count": 84,
      "max": [
        0.9999957084655762,
        0.9316630959510803,
        1.0
      ],
      "min": [
        -0.9999957084655762,
        -0.9316631555557251,
        -1.0
      ],
      "type": "VEC3"
    },
    {
      "bufferView": 3,
      "byteOffset": 11040,
      "componentType": 5126,
      "count": 84,
      "max": [
        0.9316630959510803,
        0.9314729571342468,
        0.0009437653352506459,
        1.0
      ],
      "min": [
        -0.9316631555557251,
        -0.9999996423721313,
        -0.0009408648475073278,
        1.0
      ],
      "type": "VEC4"
    },
    {
      "bufferView": 1,
      "byteOffset": 5520,
      "componentType": 5126,
      "count": 84,
      "max": [
        0.7527209520339966,
        0.21133553981781006
      ],
      "min": [
        0.5448305010795593,
        0.03727218508720398
      ],
      "type": "VEC2"
    },
    {
      "bufferView": 0,
      "byteOffset": 5832,
      "componentType": 5125,
      "count": 222,
      "type": "SCALAR"
    },
    {
      "bufferView": 2,
      "byteOffset": 18576,
      "componentType": 5126,
      "count": 84,
      "max": [
        -55.27415084838867,
        4.8546648025512695,
        -13.30617904663086
      ],
      "min": [
        -58.72260284423828,
        0.03771601989865303,
        -15.873367309570313
      ],
      "type": "VEC3"
    },
    {
      "bufferView": 2,
      "byteOffset": 19584,
      "componentType": 5126,
      "count": 84,
      "max": [
        0.9999957084655762,
        0.9316625595092773,
        1.0
      ],
      "min": [
        -0.9999957084655762,
        -0.9316631555557251,
        -1.0
      ],
      "type": "VEC3"
    },
    {
      "bufferView": 3,
      "byteOffset": 12384,
      "componentType": 5126,
      "count": 84,
      "max": [
        0.9316625595092773,
        0.9314672350883484,
        0.0001610422768862918,
        1.0
      ],
      "min": [
        -0.9316631555557251,
        -1.0,
        -0.00015817678649909794,
        1.0
      ],
      "type": "VEC4"
    },
    {
      "bufferView": 1,
      "byteOffset": 6192,
      "componentType": 5126,
      "count": 84,
      "max": [
        0.7490448951721191,
        0.2946564257144928
      ],
      "min": [
        0.4915159344673157,
        0.03577369451522827
      ],
      "type": "VEC2"
    },
    {
      "bufferView": 0,
      "byteOffset": 6720,
      "componentType": 5125,
      "count": 222,
      "type": "SCALAR"
    },
    {
      "bufferView": 2,
      "byteOffset": 20592,
      "componentType": 5126,
      "count": 84,
      "max": [
        -55.26620101928711,
        4.8546648025512695,
        15.957637786865234
      ],
      "min": [
        -58.71465301513672,
        0.03771601989865303,
        13.390449523925781
      ],
      "type": "VEC3"
    },
    {
      "bufferView": 2,
      "byteOffset": 21600,
      "componentType": 5126,
      "count": 84,
      "max": [
        0.9999956488609314,
        0.9316630363464355,
        1.0
      ],
      "min": [
        -0.9999957084655762,
        -0.9316625595092773,
        -1.0
      ],
      "type": "VEC3"
    },
    {
      "bufferView": 3,
      "byteOffset": 13728,
      "componentType": 5126,
      "count": 84,
      "max": [
        0.9316630363464355,
        0.9314778447151184,
        8.352521399501711e-05,
        1.0
      ],
      "min": [
        -0.9316625595092773,
        -1.0,
        -0.000120057440653909,
        1.0
      ],
      "type": "VEC4"
    },
    {
      "bufferView": 1,
      "byteOffset": 6864,
      "componentType": 5126,
      "count": 84,
      "max": [
        0.7450693845748901,
        0.25414979457855225
      ],
      "min": [
        0.5195337533950806,
        0.035069555044174194
      ],
      "type": "VEC2"
    },
    {
      "bufferView": 0,
      "byteOffset": 7608,
      "componentType": 5125,
      "count": 222,
      "type": "SCALAR"
    }
  ],
  "asset": {
    "extras": {
      "author": "jazz-the-giraffe (https://sketchfab.com/jazz-the-giraffe)",
      "license": "CC-BY-4.0 (http://creativecommons.org/licenses/by/4.0/)",
      "source": "https://sketchfab.com/3d-models/whiteboard-short-circuit-line-graph-645a082a9cc44aa8ac144b27daa5dc18",
      "title": "Whiteboard short circuit line graph"
    },
    "generator": "Sketchfab-14.77.0",
    "version": "2.0"
  },
  "bufferViews": [
    {
      "buffer": 0,
      "byteLength": 8496,
      "name": "floatBufferViews",
      "target": 34963
    },
    {
      "buffer": 0,
      "byteLength": 7536,
      "byteOffset": 8496,
      "byteStride": 8,
      "name": "floatBufferViews",
      "target": 34962
    },
    {
      "buffer": 0,
      "byteLength": 22608,
      "byteOffset": 16032,
      "byteStride": 12,
      "name": "floatBufferViews",
      "target": 34962
    },
    {
      "buffer": 0,
      "byteLength": 15072,
      "byteOffset": 38640,
      "byteStride": 16,
      "name": "floatBufferViews",
      "target": 34962
    }
  ],
  "buffers": [
    {
      "byteLength": 53712,
      "uri": "scene.bin"
    }
  ],
  "images": [
    {
      "uri": "textures/lambert1_baseColor.jpeg"
    },
    {
      "uri": "textures/lambert1_metallicRoughness.png"
    },
    {
      "uri": "textures/lambert1_normal.png"
    }
  ],
  "materials": [
    {
      "doubleSided": true,
      "name": "lambert1",
      "normalTexture": {
        "index": 2
      },
      "pbrMetallicRoughness": {
        "baseColorTexture": {
          "index": 0
        },
        "metallicRoughnessTexture": {
          "index": 1
        }
      }
    }
  ],
  "meshes": [
    {
      "name": "whiteboard_low_lambert1_0",
      "primitives": [
        {
          "attributes": {
            "NORMAL": 1,
            "POSITION": 0,
            "TANGENT": 2,
            "TEXCOORD_0": 3
          },
          "indices": 4,
          "material": 0,
          "mode": 4
        }
      ]
    },
    {
      "name": "wheel1_lambert1_0",
      "primitives": [
        {
          "attributes": {
            "NORMAL": 6,
            "POSITION": 5,
            "TANGENT": 7,
            "TEXCOORD_0": 8
          },
          "indices": 9,
          "material": 0,
          "mode": 4
        }
      ]
    },
    {
      "name": "wheel2_lambert1_0",
      "primitives": [
        {
          "attributes": {
            "NORMAL": 11,
            "POSITION": 10,
            "TANGENT": 12,
            "TEXCOORD_0": 13
          },
          "indices": 14,
          "material": 0,
          "mode": 4
        }
      ]
    },
    {
      "name": "wheel3_lambert1_0",
      "primitives": [
        {
          "attributes": {
            "NORMAL": 16,
            "POSITION": 15,
            "TANGENT": 17,
            "TEXCOORD_0": 18
          },
          "indices": 19,
          "material": 0,
          "mode": 4
        }
      ]
    },
    {
      "name": "wheel4_lambert1_0",
      "primitives": [
        {
          "attributes": {
            "NORMAL": 21,
            "POSITION": 20,
            "TANGENT": 22,
            "TEXCOORD_0": 23
          },
          "indices": 24,
          "material": 0,
          "mode": 4
        }
      ]
    }
  ],
  "nodes": [
    {
      "children": [
        1
      ],
      "matrix": [
        1.0,
        0.0,
        0.0,
        0.0,
        0.0,
        2.220446049250313e-16,
        -1.0,
        0.0,
        0.0,
        1.0,
        2.220446049250313e-16,
        0.0,
        0.0,
        0.0,
        0.0,
        1.0
      ],
      "name": "Sketchfab_model"
    },
    {
      "children": [
        2
      ],
      "matrix": [
        0.009999999776482582,
        0.0,
        0.0,
        0.0,
        0.0,
        0.0,
        0.009999999776482582,
        0.0,
        0.0,
        -0.009999999776482582,
        0.0,
        0.0,
        0.0,
        0.0,
        0.0,
        1.0
      ],
      "name": "ca0fe17832f04d7e9f7f4326928f15a9.fbx"
    },
    {
      "children": [
        3
      ],
      "name": "RootNode"
    },
    {
      "children": [
        4,
        5,
        7,
        9,
        11
      ],
      "name": "whiteboard_low"
    },
    {
      "mesh": 0,
      "name": "whiteboard_low_lambert1_0"
    },
    {
      "children": [
        6
      ],
      "name": "wheel1"
    },
    {
      "mesh": 1,
      "name": "wheel1_lambert1_0"
    },
    {
      "children": [
        8
      ],
      "name": "wheel2"
    },
    {
      "mesh": 2,
      "name": "wheel2_lambert1_0"
    },
    {
      "children": [
        10
      ],
      "name": "wheel3"
    },
    {
      "mesh": 3,
      "name": "wheel3_lambert1_0"
    },
    {
      "children": [
        12
      ],
      "name": "wheel4"
    },
    {
      "mesh": 4,
      "name": "wheel4_lambert1_0"
    }
  ],
  "samplers": [
    {
      "magFilter": 9729,
      "minFilter": 9987,
      "wrapS": 10497,
      "wrapT": 10497
    }
  ],
  "scene": 0,
  "scenes": [
    {
      "name": "Sketchfab_Scene",
      "nodes": [
        0
      ]
    }
  ],
  "textures": [
    {
      "sampler": 0,
      "source": 0
    },
    {
      "sampler": 0,
      "source": 1
    },
    {
      "sampler": 0,
      "source": 2
    }
  ]
}
